<?xml version="1.0" encoding="utf-8"?>
<!-- Generator: Adobe Illustrator 21.1.0, SVG Export Plug-In . SVG Version: 6.00 Build 0)  -->
<svg version="1.1" id="Layer_1" xmlns="http://www.w3.org/2000/svg" xmlns:xlink="http://www.w3.org/1999/xlink" x="0px" y="0px"
	 viewBox="0 0 150 150" style="enable-background:new 0 0 150 150;" xml:space="preserve">
<style type="text/css">
	.st0{fill:#DC4E41;}
	.st1{fill:#FFFFFF;}
</style>
<g id="google_ic_with_bg" transform="translate(893 -3776)">
	<g id="Group_5153" transform="translate(-893 3776.001)">
		<circle id="XMLID_30_" class="st0" cx="75" cy="75" r="75"/>
	</g>
	<path id="google-brands" class="st1" d="M-774.9,3851.8c0,24.5-16.8,41.9-41.5,41.9c-23.7,0.3-43.1-18.6-43.4-42.3
		c-0.3-23.7,18.6-43.1,42.3-43.4c0.4,0,0.8,0,1.1,0c10.7-0.1,21,3.9,28.7,11.2l-11.7,11.2c-15.3-14.7-43.7-3.7-43.7,20.4
		c-0.1,14.8,11.8,26.9,26.6,27.1c17,0,23.3-12.2,24.3-18.5h-24.3v-14.7h40.8C-775.1,3847-774.9,3849.4-774.9,3851.8z"/>
</g>
</svg>
